<?xml version="1.0" encoding="UTF-8"?><svg id="a" xmlns="http://www.w3.org/2000/svg" viewBox="0 0 49 49"><path d="M33.48,23.98l3.92-11.24,5.64,7.05c-2.03-8.52-9.69-14.86-18.84-14.86C13.51,4.93,4.84,13.6,4.84,24.3s8.67,19.37,19.37,19.37c4.7,0,9.02-1.68,12.37-4.47l-10.23,1.74-8.33-10.47-.24-.41,11.92-2.19c.79-.15,1.6,.17,2.13,.82l6.83,8.51c.55-.62,1.07-1.27,1.54-1.96l-6.14-7.81c-.76-.97-.98-2.28-.58-3.45Zm-2.38-.52c-.35,1-1.18,1.72-2.17,1.89l-11.77,2.08,4.61-13.4,13.47-2.38-4.13,11.81Z" fill="#fff"/><path d="M43.04,19.8l-5.64-7.05-3.92,11.24c-.41,1.16-.19,2.48,.58,3.45l6.14,7.81c2.13-3.11,3.38-6.88,3.38-10.93,0-1.55-.19-3.06-.53-4.5Z" fill="#006e74"/><path d="M21.77,14.04l-4.61,13.4,11.77-2.08c1-.18,1.83-.9,2.17-1.89l4.13-11.81-13.47,2.38Z" fill="#006e74"/><path d="M29.69,27.87l-11.92,2.19,.24,.41,8.33,10.47,10.23-1.74c.74-.62,1.43-1.29,2.08-2.01l-6.83-8.51c-.52-.65-1.34-.97-2.13-.82Z" fill="#006e74"/><path d="M19.07,45.3c-7.01-1.62-10.86-6.93-18.49-9.79,8.63,3.42,15.97,16.81,28.37,8.79-1.22,.69-4.46,2.25-9.88,1Z" fill="#fff"/><path d="M33.23,4.62c6.32,3.36,8.6,9.36,15.19,14.05C41.03,13.19,37.55-1.29,23.45,2.95c1.36-.33,4.9-.93,9.79,1.67Z" fill="#fff"/></svg>