<?xml version="1.0" encoding="UTF-8"?><svg id="a" xmlns="http://www.w3.org/2000/svg" viewBox="0 0 162.5 75.27"><g><path d="M56.45,42.57c-1.28-1.63-1.65-3.85-.97-5.81l6.61-18.95,9.51,11.9c-3.42-14.37-16.34-25.06-31.76-25.06C21.81,4.64,7.19,19.26,7.19,37.3s14.62,32.66,32.66,32.66c7.92,0,15.18-2.83,20.83-7.53l-17.23,2.93-14.04-17.66-.41-.7,20.1-3.69c1.34-.25,2.71,.28,3.59,1.38l11.52,14.34c.93-1.04,1.8-2.14,2.6-3.3l-10.35-13.16Z" fill="#089891"/><path d="M55.48,36.76c-.68,1.96-.31,4.18,.97,5.81l10.35,13.16c3.6-5.25,5.7-11.59,5.7-18.44,0-2.62-.32-5.16-.9-7.6l-9.51-11.9-6.61,18.95Z" fill="#fff"/><path d="M49.09,43.31l-20.1,3.69,.41,.7,14.04,17.66,17.23-2.93c1.26-1.04,2.44-2.18,3.52-3.39l-11.52-14.34c-.88-1.1-2.26-1.63-3.59-1.38Z" fill="#fff"/></g><path d="M35.73,19.99l22.71-4.01-6.97,19.91c-.59,1.68-1.98,2.89-3.67,3.19l-19.85,3.51,7.78-22.59Z" fill="#fff"/><path d="M0,56.2c12.87,4.82,19.36,13.78,31.18,16.51,9.14,2.11,14.6-.51,16.66-1.68C26.92,84.54,14.55,61.96,0,56.2Z" fill="#089891"/><path d="M80.68,27.8c-11.11-7.91-14.96-18.02-25.61-23.69C46.83-.27,40.86,.74,38.57,1.29c23.78-7.15,29.64,17.27,42.11,26.51Z" fill="#089891"/><g transform="matrix(1.2357 0 0 1 181.533 608.0589)" isolation="isolate"><g isolation="isolate"><path d="M68.75,41.46l2.23,.57c-.34,1.01-.91,1.75-1.71,2.24-.8,.49-1.8,.73-3.03,.73-1.51,0-2.76-.42-3.73-1.25-.97-.84-1.46-1.98-1.46-3.43,0-1.54,.49-2.73,1.47-3.58,.98-.85,2.27-1.27,3.86-1.27,1.39,0,2.53,.33,3.4,1,.52,.39,.91,.96,1.17,1.7l-2.28,.44c-.13-.48-.42-.86-.84-1.13s-.95-.42-1.56-.42c-.85,0-1.53,.25-2.06,.74-.53,.49-.79,1.29-.79,2.38,0,1.17,.26,2,.78,2.49,.52,.5,1.19,.74,2.02,.74,.61,0,1.14-.16,1.58-.47s.76-.81,.95-1.48Z"/><path d="M72.48,40.3c0-.94,.17-1.73,.52-2.37,.26-.47,.61-.89,1.06-1.26,.45-.37,.94-.65,1.47-.83,.71-.24,1.53-.37,2.46-.37,1.68,0,3.02,.42,4.03,1.26,1.01,.84,1.51,2.02,1.51,3.52s-.5,2.65-1.5,3.5c-1,.84-2.34,1.26-4.01,1.26s-3.04-.42-4.04-1.25c-1-.84-1.5-1.99-1.5-3.46Zm2.37-.06c0,1.04,.3,1.84,.89,2.38,.6,.54,1.35,.81,2.27,.81s1.67-.27,2.26-.8c.59-.54,.88-1.34,.88-2.41s-.29-1.85-.86-2.37-1.33-.78-2.28-.78-1.71,.26-2.29,.79-.87,1.32-.87,2.38Z"/><path d="M85.4,44.85v-9.15h2.3v7.59h5.72v1.55h-8.02Z"/><path d="M95.05,35.63h4.21c.95,0,1.67,.06,2.17,.18,.67,.16,1.24,.44,1.72,.85,.48,.41,.84,.9,1.09,1.49,.25,.59,.37,1.32,.37,2.18,0,.76-.12,1.41-.35,1.96-.29,.67-.69,1.21-1.22,1.63-.4,.31-.94,.56-1.62,.74-.51,.13-1.19,.19-2.04,.19h-4.33v-9.22Zm2.3,1.56v6.11h1.72c.64,0,1.11-.03,1.39-.09,.37-.08,.68-.2,.93-.38,.25-.18,.45-.48,.6-.89,.16-.41,.23-.98,.23-1.69s-.08-1.26-.23-1.64c-.16-.38-.37-.68-.65-.89s-.64-.36-1.06-.43c-.32-.06-.95-.09-1.89-.09h-1.03Z"/></g><g isolation="isolate"><path d="M113.96,44.85v-8.13h-3.75v-1.09h9.03v1.09h-3.77v8.13h-1.51Z" fill="#089891"/><path d="M120.81,44.85v-9.22h5.05c1.02,0,1.79,.08,2.32,.25,.53,.17,.95,.46,1.27,.88,.32,.42,.47,.88,.47,1.39,0,.65-.26,1.21-.79,1.65s-1.33,.73-2.43,.86c.4,.16,.7,.31,.91,.46,.44,.33,.86,.74,1.25,1.23l1.98,2.51h-1.9l-1.51-1.92c-.44-.55-.8-.98-1.09-1.27-.29-.29-.54-.5-.77-.62s-.45-.2-.69-.25c-.17-.03-.45-.04-.84-.04h-1.75v4.1h-1.51Zm1.51-5.15h3.24c.69,0,1.23-.06,1.62-.17,.39-.12,.68-.3,.89-.55,.2-.25,.3-.53,.3-.83,0-.44-.2-.79-.59-1.08-.39-.28-1.01-.42-1.85-.42h-3.61v3.05Z" fill="#089891"/><path d="M139.77,35.63h1.51v5.33c0,.93-.13,1.66-.39,2.21-.26,.55-.73,.99-1.4,1.33s-1.56,.51-2.66,.51-1.94-.15-2.62-.45c-.68-.3-1.16-.73-1.45-1.29-.29-.56-.44-1.33-.44-2.31v-5.33h1.51v5.32c0,.8,.09,1.39,.28,1.77,.18,.38,.5,.67,.95,.88,.45,.21,1,.31,1.64,.31,1.11,0,1.9-.2,2.37-.61,.47-.41,.71-1.19,.71-2.35v-5.32Z" fill="#089891"/><path d="M146.69,44.85v-8.13h-3.75v-1.09h9.03v1.09h-3.77v8.13h-1.51Z" fill="#089891"/><path d="M153.56,44.85v-9.22h1.51v3.79h5.92v-3.79h1.51v9.22h-1.51v-4.35h-5.92v4.35h-1.51Z" fill="#089891"/></g></g></svg>