<?xml version="1.0" encoding="UTF-8"?><svg id="a" xmlns="http://www.w3.org/2000/svg" viewBox="0 0 333.79 154.61"><g><circle cx="81.84" cy="76.61" r="67.08" fill="#089891"/><g><path d="M113.97,75.51l13.57-38.93,30.32,37.91-16.08,45.8-25.82-32.84c-2.64-3.36-3.4-7.91-1.99-11.94Z" fill="#fff"/><path d="M73.4,41.07l46.64-8.24-14.32,40.89c-1.21,3.45-4.07,5.94-7.53,6.55l-40.76,7.21,15.98-46.41Z" fill="#fff"/><path d="M60.4,97.98l28.85,36.27,46.69-7.94-27.72-34.51c-1.82-2.26-4.63-3.35-7.38-2.84l-41.28,7.59" fill="#fff"/></g><path d="M0,115.44c26.44,9.9,39.77,28.31,64.05,33.9,18.78,4.32,30-1.05,34.22-3.45C55.3,173.66,29.89,127.28,0,115.44Z" fill="#089891"/><path d="M165.73,57.11c-22.82-16.25-30.72-37.01-52.61-48.66C96.18-.56,83.93,1.52,79.22,2.65c48.85-14.68,60.88,35.47,86.51,54.45Z" fill="#089891"/></g><g transform="matrix(1.2357 0 0 1 181.533 608.0589)" isolation="isolate"><g isolation="isolate"><path d="M141.21,85.17l4.58,1.18c-.7,2.07-1.87,3.6-3.51,4.61-1.63,1-3.71,1.51-6.22,1.51-3.11,0-5.66-.86-7.66-2.58-2-1.72-3-4.07-3-7.05,0-3.15,1.01-5.6,3.02-7.35,2.01-1.74,4.66-2.62,7.94-2.62,2.86,0,5.19,.69,6.98,2.06,1.06,.81,1.86,1.97,2.4,3.49l-4.68,.9c-.28-.98-.85-1.76-1.73-2.33s-1.95-.85-3.2-.85c-1.74,0-3.14,.5-4.22,1.51-1.08,1.01-1.62,2.64-1.62,4.9,0,2.4,.53,4.1,1.6,5.12,1.06,1.02,2.45,1.52,4.15,1.52,1.26,0,2.34-.32,3.24-.97s1.55-1.66,1.95-3.05Z"/><path d="M148.89,82.78c0-1.93,.36-3.55,1.07-4.86,.53-.96,1.26-1.83,2.18-2.6,.92-.77,1.93-1.33,3.03-1.71,1.46-.5,3.14-.75,5.05-.75,3.45,0,6.21,.87,8.28,2.6,2.07,1.73,3.11,4.14,3.11,7.22s-1.03,5.45-3.08,7.18c-2.05,1.73-4.8,2.59-8.24,2.59s-6.25-.86-8.3-2.58c-2.06-1.72-3.08-4.09-3.08-7.1Zm4.87-.13c0,2.15,.61,3.77,1.84,4.88,1.22,1.11,2.78,1.66,4.66,1.66s3.43-.55,4.64-1.65c1.21-1.1,1.81-2.75,1.81-4.94s-.59-3.79-1.76-4.86-2.74-1.6-4.69-1.6-3.52,.54-4.71,1.62-1.79,2.71-1.79,4.89Z"/><path d="M175.41,92.14v-18.79h4.73v15.6h11.75v3.19h-16.48Z"/><path d="M195.25,73.19h8.64c1.95,0,3.43,.12,4.46,.36,1.37,.33,2.55,.91,3.53,1.75,.98,.84,1.73,1.86,2.24,3.07,.51,1.21,.77,2.7,.77,4.48,0,1.56-.24,2.9-.72,4.03-.59,1.38-1.42,2.49-2.51,3.35-.82,.65-1.93,1.15-3.32,1.51-1.04,.27-2.44,.4-4.18,.4h-8.9v-18.95Zm4.73,3.21v12.55h3.53c1.32,0,2.27-.06,2.86-.18,.77-.15,1.4-.42,1.91-.79,.51-.37,.92-.98,1.24-1.83,.32-.85,.48-2,.48-3.47s-.16-2.59-.48-3.37c-.32-.78-.77-1.4-1.34-1.84s-1.3-.74-2.19-.89c-.66-.12-1.95-.18-3.88-.18h-2.12Z"/></g><g isolation="isolate"><path d="M234.09,92.14v-16.71h-7.71v-2.24h18.56v2.24h-7.74v16.71h-3.1Z" fill="#089891"/><path d="M248.16,92.14v-18.95h10.38c2.09,0,3.67,.17,4.76,.51,1.09,.34,1.95,.94,2.6,1.8,.65,.86,.97,1.81,.97,2.86,0,1.34-.54,2.48-1.61,3.4s-2.74,1.51-4.98,1.76c.82,.32,1.44,.63,1.87,.94,.9,.67,1.76,1.51,2.57,2.52l4.07,5.16h-3.9l-3.1-3.94c-.9-1.14-1.65-2.01-2.24-2.61-.59-.6-1.11-1.03-1.57-1.27s-.93-.41-1.41-.5c-.35-.06-.93-.09-1.73-.09h-3.59v8.41h-3.1Zm3.1-10.58h6.66c1.42,0,2.52-.12,3.32-.36,.8-.24,1.41-.62,1.82-1.14,.42-.52,.62-1.09,.62-1.7,0-.9-.4-1.63-1.21-2.21-.8-.58-2.07-.87-3.81-.87h-7.41v6.27Z" fill="#089891"/><path d="M287.09,73.19h3.1v10.95c0,1.9-.27,3.42-.8,4.54-.53,1.12-1.49,2.03-2.88,2.73s-3.21,1.05-5.47,1.05-3.99-.31-5.38-.92c-1.39-.61-2.39-1.5-2.99-2.65-.6-1.16-.89-2.74-.89-4.75v-10.95h3.1v10.93c0,1.64,.19,2.86,.57,3.64,.38,.78,1.03,1.38,1.95,1.8,.92,.42,2.05,.63,3.38,.63,2.28,0,3.9-.42,4.87-1.25,.97-.84,1.45-2.44,1.45-4.82v-10.93Z" fill="#089891"/><path d="M301.3,92.14v-16.71h-7.71v-2.24h18.56v2.24h-7.74v16.71h-3.1Z" fill="#089891"/><path d="M315.42,92.14v-18.95h3.1v7.78h12.17v-7.78h3.1v18.95h-3.1v-8.93h-12.17v8.93h-3.1Z" fill="#089891"/></g></g></svg>